<?xml version="1.0" encoding="UTF-8"?>
<svg width="129" height="129" viewBox="0 0 129 129" xmlns="http://www.w3.org/2000/svg">
  <g id="Page-1" stroke="none" stroke-width="1" fill="none" fill-rule="evenodd">
    <g id="Desktop-Copy" transform="translate(-98 -93)">
      <g id="Group-Copy" transform="translate(98 93)">
        <path id="Rectangle" fill="#283149" opacity="0" d="M0 0h129v129H0z"/>
        <path d="M58 64.7c0 2-.5 3.9-1.7 5.8l-22 35a14.6 14.6 0 01-9 7c-3.6 1-7.3.1-11-2.2l-6.4-4 26-41.6L8 23l6.4-4c3.7-2.3 7.4-3 11-2.2 3.7.9 6.7 3.3 9 7l22 35c1.2 2 1.7 4 1.7 5.9zM119.5 101.1c-.2 3-1.1 5.3-2.8 6.8a10.2 10.2 0 01-7.2 2.6h-44c-3 0-5.4-.9-7.2-2.6-1.7-1.5-2.6-3.8-2.8-6.8v-.2c.2-3 1.1-5.3 2.8-6.8 1.8-1.7 4.2-2.6 7.2-2.6h44c3 0 5.4.9 7.2 2.6 1.7 1.5 2.6 3.8 2.8 6.8v.2z" id="Combined-Shape" stroke="#FFF" stroke-width="3" fill="#293241"/>
      </g>
    </g>
  </g>
</svg>
