<?xml version="1.0" encoding="UTF-8"?>
<svg width="129px" height="129px" viewBox="0 0 129 129" version="1.1" xmlns="http://www.w3.org/2000/svg" xmlns:xlink="http://www.w3.org/1999/xlink">
    <g id="Page-1" stroke="none" stroke-width="1" fill="none" fill-rule="evenodd">
        <g id="Desktop-Copy" transform="translate(-98.000000, -93.000000)">
            <g id="Group-Copy" transform="translate(98.000000, 93.000000)">
                <rect id="Rectangle" fill="#EE6C4D" opacity="0.011" x="0" y="0" width="129" height="129"></rect>
                <path d="M57.9860571,64.6937336 C58.0435622,66.6570898 57.4608287,68.6049509 56.2685629,70.5129749 L34.3620578,105.570712 C32.0125337,109.330736 29.0024425,111.683678 25.3645908,112.544303 C21.7222274,113.405994 18.0008186,112.64125 14.2725731,110.311583 L7.93304896,106.350209 L33.9629037,64.6937336 L7.93304896,23.0372583 L14.2725731,19.075884 C18.0008186,16.7462176 21.7222274,15.981473 25.3645908,16.8431646 C29.0024425,17.7037889 32.0125337,20.056731 34.3620578,23.8167556 L56.2685629,58.8744922 C57.4608287,60.7825162 58.0435622,62.7303774 57.9860571,64.6937336 Z" id="Combined-Shape" stroke="#FFFFFF" stroke-width="3" fill="#293241"></path>
                <path d="M119.496019,101.109216 C119.278395,104.090174 118.376408,106.38168 116.733169,107.914813 C114.881366,109.642535 112.458426,110.5 109.544337,110.5 L65.4556633,110.5 C62.5415737,110.5 60.1186344,109.642535 58.2668313,107.914813 C56.6235923,106.38168 55.7216053,104.090174 55.5039814,101.109216 L55.5039814,100.890784 C55.7216053,97.9098255 56.6235923,95.6183203 58.2668313,94.0851872 C60.1186344,92.3574649 62.5415737,91.5 65.4556633,91.5 L109.544337,91.5 C112.458426,91.5 114.881366,92.3574649 116.733169,94.0851872 C118.376408,95.6183203 119.278395,97.9098255 119.496019,100.890784 L119.496019,101.109216 Z" id="Combined-Shape" stroke="#FFFFFF" stroke-width="3" fill="#293241"></path>
            </g>
        </g>
    </g>
</svg>
